<mxfile host="app.diagrams.net" modified="2023-03-27T15:44:53.103Z" agent="Mozilla/5.0 (Macintosh; Intel Mac OS X 10_15_7) AppleWebKit/537.36 (KHTML, like Gecko) Chrome/111.0.0.0 Safari/537.36" etag="qCSr4KPrgGrN87SgD_LR" version="21.1.1" type="device">
  <diagram id="L4SUDdpmCuNkv0ebjU9n" name="Page-1">
    <mxGraphModel dx="2440" dy="932" grid="1" gridSize="10" guides="1" tooltips="1" connect="1" arrows="1" fold="1" page="1" pageScale="1" pageWidth="850" pageHeight="1100" math="0" shadow="0">
      <root>
        <mxCell id="0" />
        <mxCell id="1" parent="0" />
        <mxCell id="D_cj9iEXtC5JJuqYHNEy-61" style="edgeStyle=orthogonalEdgeStyle;rounded=1;orthogonalLoop=1;jettySize=auto;html=1;entryX=1;entryY=0.5;entryDx=0;entryDy=0;fontSize=24;endArrow=none;endFill=0;" parent="1" source="D_cj9iEXtC5JJuqYHNEy-1" target="D_cj9iEXtC5JJuqYHNEy-3" edge="1">
          <mxGeometry relative="1" as="geometry" />
        </mxCell>
        <mxCell id="D_cj9iEXtC5JJuqYHNEy-62" style="edgeStyle=orthogonalEdgeStyle;rounded=1;orthogonalLoop=1;jettySize=auto;html=1;entryX=0;entryY=0.5;entryDx=0;entryDy=0;fontSize=24;endArrow=none;endFill=0;" parent="1" source="D_cj9iEXtC5JJuqYHNEy-1" target="D_cj9iEXtC5JJuqYHNEy-4" edge="1">
          <mxGeometry relative="1" as="geometry" />
        </mxCell>
        <mxCell id="D_cj9iEXtC5JJuqYHNEy-63" style="edgeStyle=orthogonalEdgeStyle;rounded=1;orthogonalLoop=1;jettySize=auto;html=1;entryX=0.5;entryY=0;entryDx=0;entryDy=0;fontSize=24;endArrow=none;endFill=0;" parent="1" source="D_cj9iEXtC5JJuqYHNEy-1" target="D_cj9iEXtC5JJuqYHNEy-5" edge="1">
          <mxGeometry relative="1" as="geometry" />
        </mxCell>
        <mxCell id="D_cj9iEXtC5JJuqYHNEy-64" style="edgeStyle=orthogonalEdgeStyle;rounded=1;orthogonalLoop=1;jettySize=auto;html=1;fontSize=24;entryX=0.5;entryY=1;entryDx=0;entryDy=0;endArrow=none;endFill=0;" parent="1" source="D_cj9iEXtC5JJuqYHNEy-1" target="D_cj9iEXtC5JJuqYHNEy-21" edge="1">
          <mxGeometry relative="1" as="geometry">
            <mxPoint x="425.5" y="479.9999999999998" as="targetPoint" />
          </mxGeometry>
        </mxCell>
        <mxCell id="D_cj9iEXtC5JJuqYHNEy-1" value="&lt;font style=&quot;font-size: 24px&quot;&gt;KINO&lt;/font&gt;" style="rounded=0;whiteSpace=wrap;html=1;" parent="1" vertex="1">
          <mxGeometry x="348" y="550" width="155" height="70" as="geometry" />
        </mxCell>
        <mxCell id="D_cj9iEXtC5JJuqYHNEy-3" value="&lt;font style=&quot;font-size: 16px;&quot;&gt;LOKACIJA&lt;/font&gt;" style="ellipse;whiteSpace=wrap;html=1;fontSize=24;" parent="1" vertex="1">
          <mxGeometry x="150" y="557.5" width="100" height="55" as="geometry" />
        </mxCell>
        <mxCell id="D_cj9iEXtC5JJuqYHNEy-4" value="&lt;font style=&quot;font-size: 16px;&quot;&gt;&lt;u&gt;ID&lt;/u&gt;&lt;/font&gt;" style="ellipse;whiteSpace=wrap;html=1;fontSize=24;" parent="1" vertex="1">
          <mxGeometry x="580" y="565" width="60" height="40" as="geometry" />
        </mxCell>
        <mxCell id="D_cj9iEXtC5JJuqYHNEy-48" style="edgeStyle=orthogonalEdgeStyle;rounded=1;orthogonalLoop=1;jettySize=auto;html=1;fontSize=24;endArrow=none;endFill=0;" parent="1" source="D_cj9iEXtC5JJuqYHNEy-5" target="D_cj9iEXtC5JJuqYHNEy-6" edge="1">
          <mxGeometry relative="1" as="geometry" />
        </mxCell>
        <mxCell id="D_cj9iEXtC5JJuqYHNEy-49" style="edgeStyle=orthogonalEdgeStyle;rounded=1;orthogonalLoop=1;jettySize=auto;html=1;fontSize=24;endArrow=none;endFill=0;" parent="1" source="D_cj9iEXtC5JJuqYHNEy-5" target="D_cj9iEXtC5JJuqYHNEy-7" edge="1">
          <mxGeometry relative="1" as="geometry" />
        </mxCell>
        <mxCell id="D_cj9iEXtC5JJuqYHNEy-50" style="edgeStyle=orthogonalEdgeStyle;rounded=1;orthogonalLoop=1;jettySize=auto;html=1;exitX=1;exitY=0.5;exitDx=0;exitDy=0;fontSize=24;endArrow=none;endFill=0;" parent="1" source="D_cj9iEXtC5JJuqYHNEy-5" target="D_cj9iEXtC5JJuqYHNEy-8" edge="1">
          <mxGeometry relative="1" as="geometry" />
        </mxCell>
        <mxCell id="D_cj9iEXtC5JJuqYHNEy-5" value="&lt;font style=&quot;font-size: 16px;&quot;&gt;SADRÅ½I&lt;/font&gt;" style="rhombus;whiteSpace=wrap;html=1;fontSize=24;" parent="1" vertex="1">
          <mxGeometry x="382.38" y="690" width="86.25" height="60" as="geometry" />
        </mxCell>
        <mxCell id="D_cj9iEXtC5JJuqYHNEy-54" style="edgeStyle=orthogonalEdgeStyle;rounded=1;orthogonalLoop=1;jettySize=auto;html=1;entryX=0.5;entryY=0;entryDx=0;entryDy=0;fontSize=24;endArrow=none;endFill=0;" parent="1" source="D_cj9iEXtC5JJuqYHNEy-6" target="D_cj9iEXtC5JJuqYHNEy-14" edge="1">
          <mxGeometry relative="1" as="geometry">
            <Array as="points">
              <mxPoint x="326" y="860" />
            </Array>
          </mxGeometry>
        </mxCell>
        <mxCell id="D_cj9iEXtC5JJuqYHNEy-55" style="edgeStyle=orthogonalEdgeStyle;rounded=1;orthogonalLoop=1;jettySize=auto;html=1;entryX=0.5;entryY=0;entryDx=0;entryDy=0;fontSize=24;endArrow=none;endFill=0;" parent="1" source="D_cj9iEXtC5JJuqYHNEy-6" target="D_cj9iEXtC5JJuqYHNEy-15" edge="1">
          <mxGeometry relative="1" as="geometry" />
        </mxCell>
        <mxCell id="D_cj9iEXtC5JJuqYHNEy-56" style="edgeStyle=orthogonalEdgeStyle;rounded=1;orthogonalLoop=1;jettySize=auto;html=1;entryX=0.5;entryY=0;entryDx=0;entryDy=0;fontSize=24;endArrow=none;endFill=0;" parent="1" source="D_cj9iEXtC5JJuqYHNEy-6" target="D_cj9iEXtC5JJuqYHNEy-16" edge="1">
          <mxGeometry relative="1" as="geometry" />
        </mxCell>
        <mxCell id="D_cj9iEXtC5JJuqYHNEy-6" value="&lt;font style=&quot;font-size: 16px&quot;&gt;FILM&lt;/font&gt;" style="rounded=0;whiteSpace=wrap;html=1;fontSize=24;" parent="1" vertex="1">
          <mxGeometry x="365" y="830" width="120" height="60" as="geometry" />
        </mxCell>
        <mxCell id="D_cj9iEXtC5JJuqYHNEy-51" style="edgeStyle=orthogonalEdgeStyle;orthogonalLoop=1;jettySize=auto;html=1;entryX=0.5;entryY=0;entryDx=0;entryDy=0;fontSize=24;strokeColor=default;rounded=1;endArrow=none;endFill=0;" parent="1" source="D_cj9iEXtC5JJuqYHNEy-7" target="D_cj9iEXtC5JJuqYHNEy-10" edge="1">
          <mxGeometry relative="1" as="geometry" />
        </mxCell>
        <mxCell id="D_cj9iEXtC5JJuqYHNEy-52" style="edgeStyle=orthogonalEdgeStyle;rounded=1;orthogonalLoop=1;jettySize=auto;html=1;entryX=0.5;entryY=0;entryDx=0;entryDy=0;fontSize=24;endArrow=none;endFill=0;" parent="1" source="D_cj9iEXtC5JJuqYHNEy-7" target="D_cj9iEXtC5JJuqYHNEy-11" edge="1">
          <mxGeometry relative="1" as="geometry" />
        </mxCell>
        <mxCell id="D_cj9iEXtC5JJuqYHNEy-53" style="edgeStyle=orthogonalEdgeStyle;rounded=1;orthogonalLoop=1;jettySize=auto;html=1;entryX=0.611;entryY=0.038;entryDx=0;entryDy=0;entryPerimeter=0;fontSize=24;endArrow=none;endFill=0;" parent="1" source="D_cj9iEXtC5JJuqYHNEy-7" target="D_cj9iEXtC5JJuqYHNEy-12" edge="1">
          <mxGeometry relative="1" as="geometry">
            <Array as="points">
              <mxPoint x="210" y="920" />
              <mxPoint x="236" y="920" />
            </Array>
          </mxGeometry>
        </mxCell>
        <mxCell id="D_cj9iEXtC5JJuqYHNEy-7" value="&lt;font style=&quot;font-size: 16px&quot;&gt;DVORANA&lt;/font&gt;" style="rounded=0;whiteSpace=wrap;html=1;fontSize=24;" parent="1" vertex="1">
          <mxGeometry x="120" y="830" width="120" height="60" as="geometry" />
        </mxCell>
        <mxCell id="D_cj9iEXtC5JJuqYHNEy-57" style="edgeStyle=orthogonalEdgeStyle;rounded=1;orthogonalLoop=1;jettySize=auto;html=1;entryX=0;entryY=0;entryDx=0;entryDy=0;fontSize=24;endArrow=none;endFill=0;" parent="1" source="D_cj9iEXtC5JJuqYHNEy-8" target="D_cj9iEXtC5JJuqYHNEy-17" edge="1">
          <mxGeometry relative="1" as="geometry">
            <Array as="points">
              <mxPoint x="640" y="930" />
              <mxPoint x="621" y="930" />
            </Array>
          </mxGeometry>
        </mxCell>
        <mxCell id="D_cj9iEXtC5JJuqYHNEy-58" style="edgeStyle=orthogonalEdgeStyle;rounded=1;orthogonalLoop=1;jettySize=auto;html=1;fontSize=24;endArrow=none;endFill=0;" parent="1" source="D_cj9iEXtC5JJuqYHNEy-8" target="D_cj9iEXtC5JJuqYHNEy-20" edge="1">
          <mxGeometry relative="1" as="geometry" />
        </mxCell>
        <mxCell id="D_cj9iEXtC5JJuqYHNEy-59" style="edgeStyle=orthogonalEdgeStyle;rounded=1;orthogonalLoop=1;jettySize=auto;html=1;fontSize=24;endArrow=none;endFill=0;" parent="1" source="D_cj9iEXtC5JJuqYHNEy-8" target="D_cj9iEXtC5JJuqYHNEy-18" edge="1">
          <mxGeometry relative="1" as="geometry" />
        </mxCell>
        <mxCell id="D_cj9iEXtC5JJuqYHNEy-60" style="edgeStyle=orthogonalEdgeStyle;rounded=1;orthogonalLoop=1;jettySize=auto;html=1;fontSize=24;endArrow=none;endFill=0;" parent="1" source="D_cj9iEXtC5JJuqYHNEy-8" target="D_cj9iEXtC5JJuqYHNEy-19" edge="1">
          <mxGeometry relative="1" as="geometry">
            <Array as="points">
              <mxPoint x="720" y="910" />
              <mxPoint x="847" y="910" />
            </Array>
          </mxGeometry>
        </mxCell>
        <mxCell id="D_cj9iEXtC5JJuqYHNEy-8" value="&lt;font style=&quot;font-size: 16px&quot;&gt;ZAPOSLENICI&lt;/font&gt;" style="rounded=0;whiteSpace=wrap;html=1;fontSize=24;" parent="1" vertex="1">
          <mxGeometry x="620" y="830" width="120" height="60" as="geometry" />
        </mxCell>
        <mxCell id="D_cj9iEXtC5JJuqYHNEy-10" value="&lt;font style=&quot;font-size: 16px;&quot;&gt;&lt;u&gt;ID&lt;/u&gt;&lt;/font&gt;" style="ellipse;whiteSpace=wrap;html=1;fontSize=24;" parent="1" vertex="1">
          <mxGeometry x="-10" y="950" width="75" height="50" as="geometry" />
        </mxCell>
        <mxCell id="D_cj9iEXtC5JJuqYHNEy-11" value="&lt;font style=&quot;font-size: 16px;&quot;&gt;TIP&lt;/font&gt;" style="ellipse;whiteSpace=wrap;html=1;fontSize=24;" parent="1" vertex="1">
          <mxGeometry x="90" y="950" width="75" height="50" as="geometry" />
        </mxCell>
        <mxCell id="D_cj9iEXtC5JJuqYHNEy-12" value="&lt;font style=&quot;font-size: 16px;&quot;&gt;DATUM&lt;/font&gt;" style="ellipse;whiteSpace=wrap;html=1;fontSize=24;" parent="1" vertex="1">
          <mxGeometry x="190" y="950" width="75" height="50" as="geometry" />
        </mxCell>
        <mxCell id="D_cj9iEXtC5JJuqYHNEy-14" value="&lt;font style=&quot;font-size: 16px;&quot;&gt;&lt;u&gt;ID&lt;/u&gt;&lt;/font&gt;" style="ellipse;whiteSpace=wrap;html=1;fontSize=24;" parent="1" vertex="1">
          <mxGeometry x="288.01" y="1070" width="75" height="50" as="geometry" />
        </mxCell>
        <mxCell id="D_cj9iEXtC5JJuqYHNEy-15" value="&lt;font style=&quot;font-size: 16px;&quot;&gt;IME&lt;/font&gt;" style="ellipse;whiteSpace=wrap;html=1;fontSize=24;" parent="1" vertex="1">
          <mxGeometry x="388.01" y="1070" width="75" height="50" as="geometry" />
        </mxCell>
        <mxCell id="D_cj9iEXtC5JJuqYHNEy-16" value="&lt;font style=&quot;font-size: 16px;&quot;&gt;KATEGORIJA&lt;/font&gt;" style="ellipse;whiteSpace=wrap;html=1;fontSize=24;" parent="1" vertex="1">
          <mxGeometry x="488.01" y="1070" width="101.99" height="50" as="geometry" />
        </mxCell>
        <mxCell id="D_cj9iEXtC5JJuqYHNEy-17" value="&lt;u&gt;&lt;font style=&quot;font-size: 16px;&quot;&gt;OIB&lt;/font&gt;&lt;/u&gt;" style="ellipse;whiteSpace=wrap;html=1;fontSize=24;" parent="1" vertex="1">
          <mxGeometry x="610" y="970" width="75" height="50" as="geometry" />
        </mxCell>
        <mxCell id="D_cj9iEXtC5JJuqYHNEy-18" value="&lt;font style=&quot;font-size: 16px;&quot;&gt;IME&lt;/font&gt;" style="ellipse;whiteSpace=wrap;html=1;fontSize=24;" parent="1" vertex="1">
          <mxGeometry x="710" y="970" width="75" height="50" as="geometry" />
        </mxCell>
        <mxCell id="D_cj9iEXtC5JJuqYHNEy-19" value="&lt;font style=&quot;font-size: 16px;&quot;&gt;PREZIME&lt;/font&gt;" style="ellipse;whiteSpace=wrap;html=1;fontSize=24;" parent="1" vertex="1">
          <mxGeometry x="810" y="970" width="75" height="50" as="geometry" />
        </mxCell>
        <mxCell id="D_cj9iEXtC5JJuqYHNEy-20" value="&lt;font style=&quot;font-size: 16px;&quot;&gt;ADRESA&lt;/font&gt;" style="ellipse;whiteSpace=wrap;html=1;fontSize=24;" parent="1" vertex="1">
          <mxGeometry x="920" y="970" width="75" height="50" as="geometry" />
        </mxCell>
        <mxCell id="D_cj9iEXtC5JJuqYHNEy-65" style="edgeStyle=orthogonalEdgeStyle;rounded=1;orthogonalLoop=1;jettySize=auto;html=1;entryX=0.5;entryY=1;entryDx=0;entryDy=0;fontSize=24;endArrow=none;endFill=0;" parent="1" source="D_cj9iEXtC5JJuqYHNEy-21" target="D_cj9iEXtC5JJuqYHNEy-22" edge="1">
          <mxGeometry relative="1" as="geometry" />
        </mxCell>
        <mxCell id="D_cj9iEXtC5JJuqYHNEy-66" style="edgeStyle=orthogonalEdgeStyle;rounded=1;orthogonalLoop=1;jettySize=auto;html=1;entryX=0.5;entryY=1;entryDx=0;entryDy=0;fontSize=24;endArrow=none;endFill=0;" parent="1" source="D_cj9iEXtC5JJuqYHNEy-21" target="D_cj9iEXtC5JJuqYHNEy-26" edge="1">
          <mxGeometry relative="1" as="geometry" />
        </mxCell>
        <mxCell id="D_cj9iEXtC5JJuqYHNEy-21" value="&lt;font style=&quot;font-size: 16px;&quot;&gt;IMA&lt;/font&gt;" style="rhombus;whiteSpace=wrap;html=1;fontSize=24;" parent="1" vertex="1">
          <mxGeometry x="382" y="370" width="86.25" height="60" as="geometry" />
        </mxCell>
        <mxCell id="D_cj9iEXtC5JJuqYHNEy-67" style="edgeStyle=orthogonalEdgeStyle;rounded=1;orthogonalLoop=1;jettySize=auto;html=1;entryX=0.5;entryY=1;entryDx=0;entryDy=0;fontSize=24;endArrow=none;endFill=0;" parent="1" source="D_cj9iEXtC5JJuqYHNEy-22" target="D_cj9iEXtC5JJuqYHNEy-24" edge="1">
          <mxGeometry relative="1" as="geometry" />
        </mxCell>
        <mxCell id="D_cj9iEXtC5JJuqYHNEy-68" style="edgeStyle=orthogonalEdgeStyle;rounded=1;orthogonalLoop=1;jettySize=auto;html=1;entryX=0.5;entryY=1;entryDx=0;entryDy=0;fontSize=24;endArrow=none;endFill=0;" parent="1" source="D_cj9iEXtC5JJuqYHNEy-22" target="D_cj9iEXtC5JJuqYHNEy-23" edge="1">
          <mxGeometry relative="1" as="geometry" />
        </mxCell>
        <mxCell id="D_cj9iEXtC5JJuqYHNEy-69" style="edgeStyle=orthogonalEdgeStyle;rounded=1;orthogonalLoop=1;jettySize=auto;html=1;entryX=0.5;entryY=1;entryDx=0;entryDy=0;fontSize=24;endArrow=none;endFill=0;" parent="1" source="D_cj9iEXtC5JJuqYHNEy-22" target="D_cj9iEXtC5JJuqYHNEy-25" edge="1">
          <mxGeometry relative="1" as="geometry">
            <Array as="points">
              <mxPoint x="336" y="260" />
            </Array>
          </mxGeometry>
        </mxCell>
        <mxCell id="D_cj9iEXtC5JJuqYHNEy-22" value="&lt;font style=&quot;font-size: 16px&quot;&gt;CIJENIK&lt;/font&gt;" style="rounded=0;whiteSpace=wrap;html=1;fontSize=24;" parent="1" vertex="1">
          <mxGeometry x="167.5" y="230" width="120" height="60" as="geometry" />
        </mxCell>
        <mxCell id="D_cj9iEXtC5JJuqYHNEy-23" value="&lt;font style=&quot;font-size: 16px;&quot;&gt;&lt;u&gt;ID&lt;/u&gt;&lt;/font&gt;" style="ellipse;whiteSpace=wrap;html=1;fontSize=24;" parent="1" vertex="1">
          <mxGeometry x="70" y="60" width="80" height="60" as="geometry" />
        </mxCell>
        <mxCell id="D_cj9iEXtC5JJuqYHNEy-24" value="&lt;font style=&quot;font-size: 16px;&quot;&gt;&lt;font style=&quot;font-size: 16px;&quot;&gt;DATU&lt;/font&gt;M&lt;/font&gt;" style="ellipse;whiteSpace=wrap;html=1;fontSize=24;" parent="1" vertex="1">
          <mxGeometry x="185" y="60" width="85" height="60" as="geometry" />
        </mxCell>
        <mxCell id="D_cj9iEXtC5JJuqYHNEy-25" value="&lt;font style=&quot;font-size: 16px;&quot;&gt;KATEGORIJA&lt;/font&gt;" style="ellipse;whiteSpace=wrap;html=1;fontSize=24;" parent="1" vertex="1">
          <mxGeometry x="282.5" y="60" width="107.5" height="60" as="geometry" />
        </mxCell>
        <mxCell id="D_cj9iEXtC5JJuqYHNEy-70" style="edgeStyle=orthogonalEdgeStyle;rounded=1;orthogonalLoop=1;jettySize=auto;html=1;entryX=0.5;entryY=1;entryDx=0;entryDy=0;fontSize=24;endArrow=none;endFill=0;" parent="1" source="D_cj9iEXtC5JJuqYHNEy-26" target="D_cj9iEXtC5JJuqYHNEy-27" edge="1">
          <mxGeometry relative="1" as="geometry" />
        </mxCell>
        <mxCell id="D_cj9iEXtC5JJuqYHNEy-71" style="edgeStyle=orthogonalEdgeStyle;rounded=1;orthogonalLoop=1;jettySize=auto;html=1;entryX=0.5;entryY=1;entryDx=0;entryDy=0;fontSize=24;endArrow=none;endFill=0;" parent="1" source="D_cj9iEXtC5JJuqYHNEy-26" target="D_cj9iEXtC5JJuqYHNEy-28" edge="1">
          <mxGeometry relative="1" as="geometry">
            <Array as="points">
              <mxPoint x="690" y="175" />
              <mxPoint x="737" y="175" />
            </Array>
          </mxGeometry>
        </mxCell>
        <mxCell id="D_cj9iEXtC5JJuqYHNEy-72" style="edgeStyle=orthogonalEdgeStyle;rounded=1;orthogonalLoop=1;jettySize=auto;html=1;entryX=0;entryY=0.5;entryDx=0;entryDy=0;fontSize=24;endArrow=none;endFill=0;" parent="1" source="D_cj9iEXtC5JJuqYHNEy-26" target="D_cj9iEXtC5JJuqYHNEy-29" edge="1">
          <mxGeometry relative="1" as="geometry" />
        </mxCell>
        <mxCell id="D_cj9iEXtC5JJuqYHNEy-26" value="&lt;font style=&quot;font-size: 16px&quot;&gt;REZRVACIJE&lt;/font&gt;" style="rounded=0;whiteSpace=wrap;html=1;fontSize=24;" parent="1" vertex="1">
          <mxGeometry x="585" y="230" width="120" height="60" as="geometry" />
        </mxCell>
        <mxCell id="D_cj9iEXtC5JJuqYHNEy-27" value="&lt;font style=&quot;font-size: 16px;&quot;&gt;&lt;u&gt;ID&lt;/u&gt;&lt;/font&gt;" style="ellipse;whiteSpace=wrap;html=1;fontSize=24;" parent="1" vertex="1">
          <mxGeometry x="607.5" y="70" width="75" height="50" as="geometry" />
        </mxCell>
        <mxCell id="D_cj9iEXtC5JJuqYHNEy-28" value="&lt;font style=&quot;font-size: 16px;&quot;&gt;DATUM&lt;/font&gt;" style="ellipse;whiteSpace=wrap;html=1;fontSize=24;" parent="1" vertex="1">
          <mxGeometry x="700" y="70" width="75" height="50" as="geometry" />
        </mxCell>
        <mxCell id="D_cj9iEXtC5JJuqYHNEy-73" style="edgeStyle=orthogonalEdgeStyle;rounded=1;orthogonalLoop=1;jettySize=auto;html=1;fontSize=24;endArrow=none;endFill=0;" parent="1" source="D_cj9iEXtC5JJuqYHNEy-29" edge="1">
          <mxGeometry relative="1" as="geometry">
            <Array as="points">
              <mxPoint x="1150" y="260" />
            </Array>
            <mxPoint x="1150" y="262" as="targetPoint" />
          </mxGeometry>
        </mxCell>
        <mxCell id="D_cj9iEXtC5JJuqYHNEy-29" value="&lt;font style=&quot;font-size: 16px;&quot;&gt;SADRÅ½I&lt;/font&gt;" style="rhombus;whiteSpace=wrap;html=1;fontSize=24;" parent="1" vertex="1">
          <mxGeometry x="912.5" y="232.31" width="90" height="55.38" as="geometry" />
        </mxCell>
        <mxCell id="D_cj9iEXtC5JJuqYHNEy-74" style="edgeStyle=orthogonalEdgeStyle;rounded=1;orthogonalLoop=1;jettySize=auto;html=1;entryX=0.5;entryY=1;entryDx=0;entryDy=0;fontSize=24;endArrow=none;endFill=0;" parent="1" source="D_cj9iEXtC5JJuqYHNEy-30" target="D_cj9iEXtC5JJuqYHNEy-31" edge="1">
          <mxGeometry relative="1" as="geometry">
            <Array as="points">
              <mxPoint x="1180" y="200" />
              <mxPoint x="1110" y="200" />
            </Array>
          </mxGeometry>
        </mxCell>
        <mxCell id="D_cj9iEXtC5JJuqYHNEy-75" style="edgeStyle=orthogonalEdgeStyle;rounded=1;orthogonalLoop=1;jettySize=auto;html=1;entryX=0.5;entryY=1;entryDx=0;entryDy=0;fontSize=24;endArrow=none;endFill=0;" parent="1" source="D_cj9iEXtC5JJuqYHNEy-30" target="D_cj9iEXtC5JJuqYHNEy-32" edge="1">
          <mxGeometry relative="1" as="geometry" />
        </mxCell>
        <mxCell id="D_cj9iEXtC5JJuqYHNEy-76" style="edgeStyle=orthogonalEdgeStyle;rounded=1;orthogonalLoop=1;jettySize=auto;html=1;entryX=0.5;entryY=1;entryDx=0;entryDy=0;fontSize=24;endArrow=none;endFill=0;" parent="1" source="D_cj9iEXtC5JJuqYHNEy-30" target="D_cj9iEXtC5JJuqYHNEy-33" edge="1">
          <mxGeometry relative="1" as="geometry">
            <Array as="points">
              <mxPoint x="1240" y="190" />
              <mxPoint x="1310" y="190" />
            </Array>
          </mxGeometry>
        </mxCell>
        <mxCell id="D_cj9iEXtC5JJuqYHNEy-77" style="edgeStyle=orthogonalEdgeStyle;rounded=1;orthogonalLoop=1;jettySize=auto;html=1;entryX=0.5;entryY=0;entryDx=0;entryDy=0;fontSize=24;endArrow=none;endFill=0;" parent="1" source="D_cj9iEXtC5JJuqYHNEy-30" target="D_cj9iEXtC5JJuqYHNEy-34" edge="1">
          <mxGeometry relative="1" as="geometry" />
        </mxCell>
        <mxCell id="D_cj9iEXtC5JJuqYHNEy-86" style="edgeStyle=orthogonalEdgeStyle;rounded=1;orthogonalLoop=1;jettySize=auto;html=1;entryX=0;entryY=0.5;entryDx=0;entryDy=0;fontSize=24;endArrow=none;endFill=0;" parent="1" source="D_cj9iEXtC5JJuqYHNEy-30" target="D_cj9iEXtC5JJuqYHNEy-35" edge="1">
          <mxGeometry relative="1" as="geometry" />
        </mxCell>
        <mxCell id="D_cj9iEXtC5JJuqYHNEy-30" value="RAÄUN" style="rounded=0;whiteSpace=wrap;html=1;fontSize=24;" parent="1" vertex="1">
          <mxGeometry x="1150" y="232" width="120" height="60" as="geometry" />
        </mxCell>
        <mxCell id="D_cj9iEXtC5JJuqYHNEy-31" value="&lt;u&gt;&lt;font style=&quot;font-size: 16px;&quot;&gt;ID&lt;/font&gt;&lt;/u&gt;" style="ellipse;whiteSpace=wrap;html=1;fontSize=24;" parent="1" vertex="1">
          <mxGeometry x="1072.5" y="80" width="75" height="50" as="geometry" />
        </mxCell>
        <mxCell id="D_cj9iEXtC5JJuqYHNEy-32" value="&lt;font style=&quot;font-size: 16px;&quot;&gt;DATUM&lt;/font&gt;" style="ellipse;whiteSpace=wrap;html=1;fontSize=24;" parent="1" vertex="1">
          <mxGeometry x="1172.5" y="80" width="75" height="50" as="geometry" />
        </mxCell>
        <mxCell id="D_cj9iEXtC5JJuqYHNEy-33" value="&lt;font style=&quot;font-size: 16px;&quot;&gt;PLAÄANJE&lt;/font&gt;" style="ellipse;whiteSpace=wrap;html=1;fontSize=24;" parent="1" vertex="1">
          <mxGeometry x="1272.5" y="80" width="87.5" height="50" as="geometry" />
        </mxCell>
        <mxCell id="D_cj9iEXtC5JJuqYHNEy-78" style="edgeStyle=orthogonalEdgeStyle;rounded=1;orthogonalLoop=1;jettySize=auto;html=1;entryX=0.5;entryY=0;entryDx=0;entryDy=0;fontSize=24;endArrow=none;endFill=0;" parent="1" source="D_cj9iEXtC5JJuqYHNEy-34" target="D_cj9iEXtC5JJuqYHNEy-36" edge="1">
          <mxGeometry relative="1" as="geometry" />
        </mxCell>
        <mxCell id="D_cj9iEXtC5JJuqYHNEy-82" style="edgeStyle=orthogonalEdgeStyle;rounded=1;orthogonalLoop=1;jettySize=auto;html=1;fontSize=24;endArrow=none;endFill=0;" parent="1" source="D_cj9iEXtC5JJuqYHNEy-34" target="D_cj9iEXtC5JJuqYHNEy-40" edge="1">
          <mxGeometry relative="1" as="geometry" />
        </mxCell>
        <mxCell id="D_cj9iEXtC5JJuqYHNEy-34" value="&lt;font style=&quot;font-size: 16px;&quot;&gt;UÅ½IVO&lt;/font&gt;" style="rhombus;whiteSpace=wrap;html=1;fontSize=24;" parent="1" vertex="1">
          <mxGeometry x="1158.75" y="410" width="102.5" height="68.33" as="geometry" />
        </mxCell>
        <mxCell id="D_cj9iEXtC5JJuqYHNEy-87" style="edgeStyle=orthogonalEdgeStyle;rounded=1;orthogonalLoop=1;jettySize=auto;html=1;entryX=0;entryY=0.5;entryDx=0;entryDy=0;fontSize=24;endArrow=none;endFill=0;" parent="1" source="D_cj9iEXtC5JJuqYHNEy-35" target="D_cj9iEXtC5JJuqYHNEy-44" edge="1">
          <mxGeometry relative="1" as="geometry" />
        </mxCell>
        <mxCell id="D_cj9iEXtC5JJuqYHNEy-35" value="&lt;font style=&quot;font-size: 16px;&quot;&gt;ONLINE&lt;/font&gt;" style="rhombus;whiteSpace=wrap;html=1;fontSize=24;" parent="1" vertex="1">
          <mxGeometry x="1410" y="227.84" width="102.5" height="68.33" as="geometry" />
        </mxCell>
        <mxCell id="D_cj9iEXtC5JJuqYHNEy-79" style="edgeStyle=orthogonalEdgeStyle;rounded=1;orthogonalLoop=1;jettySize=auto;html=1;entryX=0.5;entryY=0;entryDx=0;entryDy=0;fontSize=24;endArrow=none;endFill=0;" parent="1" source="D_cj9iEXtC5JJuqYHNEy-36" target="D_cj9iEXtC5JJuqYHNEy-37" edge="1">
          <mxGeometry relative="1" as="geometry" />
        </mxCell>
        <mxCell id="D_cj9iEXtC5JJuqYHNEy-80" style="edgeStyle=orthogonalEdgeStyle;rounded=1;orthogonalLoop=1;jettySize=auto;html=1;fontSize=24;endArrow=none;endFill=0;" parent="1" source="D_cj9iEXtC5JJuqYHNEy-36" target="D_cj9iEXtC5JJuqYHNEy-38" edge="1">
          <mxGeometry relative="1" as="geometry" />
        </mxCell>
        <mxCell id="D_cj9iEXtC5JJuqYHNEy-81" style="edgeStyle=orthogonalEdgeStyle;rounded=1;orthogonalLoop=1;jettySize=auto;html=1;entryX=0.679;entryY=0.067;entryDx=0;entryDy=0;entryPerimeter=0;fontSize=24;endArrow=none;endFill=0;" parent="1" source="D_cj9iEXtC5JJuqYHNEy-36" target="D_cj9iEXtC5JJuqYHNEy-39" edge="1">
          <mxGeometry relative="1" as="geometry">
            <Array as="points">
              <mxPoint x="1100" y="655" />
              <mxPoint x="1135" y="655" />
            </Array>
          </mxGeometry>
        </mxCell>
        <mxCell id="D_cj9iEXtC5JJuqYHNEy-36" value="&lt;font style=&quot;font-size: 16px&quot;&gt;ZAPOSLENIK&lt;/font&gt;" style="rounded=0;whiteSpace=wrap;html=1;fontSize=24;" parent="1" vertex="1">
          <mxGeometry x="1013.75" y="565" width="120" height="60" as="geometry" />
        </mxCell>
        <mxCell id="D_cj9iEXtC5JJuqYHNEy-37" value="&lt;u&gt;&lt;font style=&quot;font-size: 16px;&quot;&gt;ID&lt;/font&gt;&lt;/u&gt;" style="ellipse;whiteSpace=wrap;html=1;fontSize=24;" parent="1" vertex="1">
          <mxGeometry x="883.75" y="685" width="75" height="50" as="geometry" />
        </mxCell>
        <mxCell id="D_cj9iEXtC5JJuqYHNEy-38" value="&lt;font style=&quot;font-size: 16px;&quot;&gt;IME&lt;/font&gt;" style="ellipse;whiteSpace=wrap;html=1;fontSize=24;" parent="1" vertex="1">
          <mxGeometry x="983.75" y="685" width="75" height="50" as="geometry" />
        </mxCell>
        <mxCell id="D_cj9iEXtC5JJuqYHNEy-39" value="&lt;font style=&quot;font-size: 16px;&quot;&gt;PREZIME&lt;/font&gt;" style="ellipse;whiteSpace=wrap;html=1;fontSize=24;" parent="1" vertex="1">
          <mxGeometry x="1083.75" y="685" width="75" height="50" as="geometry" />
        </mxCell>
        <mxCell id="D_cj9iEXtC5JJuqYHNEy-84" style="edgeStyle=orthogonalEdgeStyle;rounded=1;orthogonalLoop=1;jettySize=auto;html=1;fontSize=24;endArrow=none;endFill=0;" parent="1" source="D_cj9iEXtC5JJuqYHNEy-40" target="D_cj9iEXtC5JJuqYHNEy-42" edge="1">
          <mxGeometry relative="1" as="geometry" />
        </mxCell>
        <mxCell id="D_cj9iEXtC5JJuqYHNEy-85" style="edgeStyle=orthogonalEdgeStyle;rounded=1;orthogonalLoop=1;jettySize=auto;html=1;entryX=0.5;entryY=0;entryDx=0;entryDy=0;fontSize=24;endArrow=none;endFill=0;" parent="1" source="D_cj9iEXtC5JJuqYHNEy-40" target="D_cj9iEXtC5JJuqYHNEy-43" edge="1">
          <mxGeometry relative="1" as="geometry" />
        </mxCell>
        <mxCell id="D_cj9iEXtC5JJuqYHNEy-40" value="&lt;font style=&quot;font-size: 16px&quot;&gt;MUÅ TERIJA&lt;/font&gt;" style="rounded=0;whiteSpace=wrap;html=1;fontSize=24;" parent="1" vertex="1">
          <mxGeometry x="1320" y="565" width="120" height="60" as="geometry" />
        </mxCell>
        <mxCell id="D_cj9iEXtC5JJuqYHNEy-41" value="&lt;u&gt;&lt;font style=&quot;font-size: 16px;&quot;&gt;ID&lt;/font&gt;&lt;/u&gt;" style="ellipse;whiteSpace=wrap;html=1;fontSize=24;" parent="1" vertex="1">
          <mxGeometry x="1270" y="680" width="75" height="50" as="geometry" />
        </mxCell>
        <mxCell id="D_cj9iEXtC5JJuqYHNEy-42" value="&lt;font style=&quot;font-size: 16px;&quot;&gt;IME&lt;/font&gt;" style="ellipse;whiteSpace=wrap;html=1;fontSize=24;" parent="1" vertex="1">
          <mxGeometry x="1380" y="680" width="75" height="50" as="geometry" />
        </mxCell>
        <mxCell id="D_cj9iEXtC5JJuqYHNEy-43" value="&lt;font style=&quot;font-size: 16px;&quot;&gt;PREZIME&lt;/font&gt;" style="ellipse;whiteSpace=wrap;html=1;fontSize=24;" parent="1" vertex="1">
          <mxGeometry x="1480" y="680" width="75" height="50" as="geometry" />
        </mxCell>
        <mxCell id="D_cj9iEXtC5JJuqYHNEy-88" style="edgeStyle=orthogonalEdgeStyle;rounded=1;orthogonalLoop=1;jettySize=auto;html=1;entryX=0;entryY=0.5;entryDx=0;entryDy=0;fontSize=24;endArrow=none;endFill=0;" parent="1" source="D_cj9iEXtC5JJuqYHNEy-44" target="D_cj9iEXtC5JJuqYHNEy-46" edge="1">
          <mxGeometry relative="1" as="geometry" />
        </mxCell>
        <mxCell id="D_cj9iEXtC5JJuqYHNEy-89" style="edgeStyle=orthogonalEdgeStyle;rounded=1;orthogonalLoop=1;jettySize=auto;html=1;entryX=0.031;entryY=0.697;entryDx=0;entryDy=0;entryPerimeter=0;fontSize=24;endArrow=none;endFill=0;" parent="1" source="D_cj9iEXtC5JJuqYHNEy-44" target="D_cj9iEXtC5JJuqYHNEy-47" edge="1">
          <mxGeometry relative="1" as="geometry">
            <Array as="points">
              <mxPoint x="1710" y="320" />
              <mxPoint x="1830" y="320" />
              <mxPoint x="1830" y="327" />
            </Array>
          </mxGeometry>
        </mxCell>
        <mxCell id="D_cj9iEXtC5JJuqYHNEy-90" style="edgeStyle=orthogonalEdgeStyle;rounded=1;orthogonalLoop=1;jettySize=auto;html=1;entryX=0;entryY=0.5;entryDx=0;entryDy=0;fontSize=24;endArrow=none;endFill=0;" parent="1" source="D_cj9iEXtC5JJuqYHNEy-44" target="D_cj9iEXtC5JJuqYHNEy-45" edge="1">
          <mxGeometry relative="1" as="geometry">
            <Array as="points">
              <mxPoint x="1750" y="135" />
            </Array>
          </mxGeometry>
        </mxCell>
        <mxCell id="D_cj9iEXtC5JJuqYHNEy-44" value="&lt;font style=&quot;font-size: 16px&quot;&gt;MUÅ TERIJA&lt;/font&gt;" style="rounded=0;whiteSpace=wrap;html=1;fontSize=24;" parent="1" vertex="1">
          <mxGeometry x="1650" y="232.31" width="120" height="60" as="geometry" />
        </mxCell>
        <mxCell id="D_cj9iEXtC5JJuqYHNEy-45" value="&lt;u&gt;&lt;font style=&quot;font-size: 16px;&quot;&gt;ID&lt;/font&gt;&lt;/u&gt;" style="ellipse;whiteSpace=wrap;html=1;fontSize=24;" parent="1" vertex="1">
          <mxGeometry x="1890" y="110" width="75" height="50" as="geometry" />
        </mxCell>
        <mxCell id="D_cj9iEXtC5JJuqYHNEy-46" value="&lt;font style=&quot;font-size: 16px;&quot;&gt;IME&amp;nbsp;&lt;/font&gt;" style="ellipse;whiteSpace=wrap;html=1;fontSize=24;" parent="1" vertex="1">
          <mxGeometry x="1890" y="200" width="75" height="50" as="geometry" />
        </mxCell>
        <mxCell id="D_cj9iEXtC5JJuqYHNEy-47" value="&lt;font style=&quot;font-size: 16px;&quot;&gt;PREZIME&lt;/font&gt;" style="ellipse;whiteSpace=wrap;html=1;fontSize=24;" parent="1" vertex="1">
          <mxGeometry x="1890" y="292.31" width="75" height="50" as="geometry" />
        </mxCell>
        <mxCell id="IjCK19rcw6wT9SKchdQO-2" value="" style="endArrow=none;html=1;rounded=1;exitX=0.25;exitY=1;exitDx=0;exitDy=0;entryX=0.5;entryY=0;entryDx=0;entryDy=0;endFill=0;" parent="1" source="D_cj9iEXtC5JJuqYHNEy-40" target="D_cj9iEXtC5JJuqYHNEy-41" edge="1">
          <mxGeometry width="50" height="50" relative="1" as="geometry">
            <mxPoint x="1050" y="740" as="sourcePoint" />
            <mxPoint x="1100" y="690" as="targetPoint" />
            <Array as="points">
              <mxPoint x="1350" y="640" />
              <mxPoint x="1308" y="640" />
            </Array>
          </mxGeometry>
        </mxCell>
        <mxCell id="IjCK19rcw6wT9SKchdQO-4" value="&lt;span style=&quot;font-size: 20px;&quot;&gt;(0,N)&lt;/span&gt;" style="text;html=1;align=center;verticalAlign=middle;resizable=0;points=[];autosize=1;strokeColor=none;fillColor=none;" parent="1" vertex="1">
          <mxGeometry x="1202.5" y="340" width="70" height="40" as="geometry" />
        </mxCell>
        <mxCell id="IjCK19rcw6wT9SKchdQO-6" value="&lt;font style=&quot;font-size: 20px;&quot;&gt;(0,N)&lt;/font&gt;" style="text;html=1;align=center;verticalAlign=middle;resizable=0;points=[];autosize=1;strokeColor=none;fillColor=none;" parent="1" vertex="1">
          <mxGeometry x="1281.25" y="220" width="70" height="40" as="geometry" />
        </mxCell>
        <mxCell id="IjCK19rcw6wT9SKchdQO-7" value="&lt;font style=&quot;font-size: 20px;&quot;&gt;(1,1)&lt;/font&gt;" style="text;html=1;align=center;verticalAlign=middle;resizable=0;points=[];autosize=1;strokeColor=none;fillColor=none;" parent="1" vertex="1">
          <mxGeometry x="1560" y="220" width="60" height="40" as="geometry" />
        </mxCell>
        <mxCell id="IjCK19rcw6wT9SKchdQO-8" value="&lt;font style=&quot;font-size: 20px;&quot;&gt;(1,N)&lt;/font&gt;" style="text;html=1;align=center;verticalAlign=middle;resizable=0;points=[];autosize=1;strokeColor=none;fillColor=none;" parent="1" vertex="1">
          <mxGeometry x="1286.25" y="400" width="70" height="40" as="geometry" />
        </mxCell>
        <mxCell id="IjCK19rcw6wT9SKchdQO-11" value="&lt;font style=&quot;font-size: 20px;&quot;&gt;(1,N)&lt;/font&gt;" style="text;html=1;align=center;verticalAlign=middle;resizable=0;points=[];autosize=1;strokeColor=none;fillColor=none;" parent="1" vertex="1">
          <mxGeometry x="1082.5" y="400" width="70" height="40" as="geometry" />
        </mxCell>
        <mxCell id="IjCK19rcw6wT9SKchdQO-12" value="&lt;span style=&quot;font-size: 20px;&quot;&gt;(N,0)&lt;/span&gt;" style="text;html=1;align=center;verticalAlign=middle;resizable=0;points=[];autosize=1;strokeColor=none;fillColor=none;" parent="1" vertex="1">
          <mxGeometry x="1002.5" y="220" width="70" height="40" as="geometry" />
        </mxCell>
        <mxCell id="IjCK19rcw6wT9SKchdQO-13" value="&lt;font style=&quot;font-size: 20px;&quot;&gt;(1,N)&lt;/font&gt;" style="text;html=1;align=center;verticalAlign=middle;resizable=0;points=[];autosize=1;strokeColor=none;fillColor=none;" parent="1" vertex="1">
          <mxGeometry x="760" y="220" width="70" height="40" as="geometry" />
        </mxCell>
        <mxCell id="IjCK19rcw6wT9SKchdQO-14" value="&lt;span style=&quot;font-size: 20px;&quot;&gt;(N,0)&lt;/span&gt;" style="text;whiteSpace=wrap;html=1;" parent="1" vertex="1">
          <mxGeometry x="520" y="360" width="60" height="40" as="geometry" />
        </mxCell>
        <mxCell id="IjCK19rcw6wT9SKchdQO-15" value="(0,N)" style="text;whiteSpace=wrap;html=1;fontSize=20;" parent="1" vertex="1">
          <mxGeometry x="305" y="360" width="60" height="40" as="geometry" />
        </mxCell>
        <mxCell id="IjCK19rcw6wT9SKchdQO-16" value="&lt;font style=&quot;font-size: 20px;&quot;&gt;(0,N)&lt;/font&gt;" style="text;html=1;align=center;verticalAlign=middle;resizable=0;points=[];autosize=1;strokeColor=none;fillColor=none;" parent="1" vertex="1">
          <mxGeometry x="415" y="490" width="70" height="40" as="geometry" />
        </mxCell>
        <mxCell id="IjCK19rcw6wT9SKchdQO-17" value="&lt;font style=&quot;font-size: 20px;&quot;&gt;(0,N)&lt;/font&gt;" style="text;whiteSpace=wrap;html=1;" parent="1" vertex="1">
          <mxGeometry x="428.01" y="630" width="60" height="40" as="geometry" />
        </mxCell>
        <mxCell id="IjCK19rcw6wT9SKchdQO-19" value="&lt;font style=&quot;font-size: 20px;&quot;&gt;(N,1)&lt;/font&gt;" style="text;html=1;align=center;verticalAlign=middle;resizable=0;points=[];autosize=1;strokeColor=none;fillColor=none;" parent="1" vertex="1">
          <mxGeometry x="530" y="670" width="70" height="40" as="geometry" />
        </mxCell>
        <mxCell id="IjCK19rcw6wT9SKchdQO-20" value="&lt;font style=&quot;font-size: 20px;&quot;&gt;(N,1)&lt;/font&gt;" style="text;html=1;align=center;verticalAlign=middle;resizable=0;points=[];autosize=1;strokeColor=none;fillColor=none;" parent="1" vertex="1">
          <mxGeometry x="433" y="770" width="70" height="40" as="geometry" />
        </mxCell>
        <mxCell id="IjCK19rcw6wT9SKchdQO-21" value="&lt;font style=&quot;font-size: 20px;&quot;&gt;(N,1)&lt;/font&gt;" style="text;html=1;align=center;verticalAlign=middle;resizable=0;points=[];autosize=1;strokeColor=none;fillColor=none;" parent="1" vertex="1">
          <mxGeometry x="240" y="680" width="70" height="40" as="geometry" />
        </mxCell>
      </root>
    </mxGraphModel>
  </diagram>
</mxfile>
